# xmcd CD database file
#
# Track frame offsets:
#	150
#	13262
#	24645
#	44278
#	57016
#	64567
#	81542
#	86099
#	111211
#	115715
#	116456
#	143403
#	144301
#	148599
#	160371
#	171928
#	258541
#
# Disc length: 4593 seconds
#
# Revision: 0
# Processed by: cddbd v1.5.1PL0 Copyright (c) Steve Scherf et al.
# Submitted via: CDex 1.51
#
DISCID=ea11ef11
DTITLE=Soft Machine - Out-Bloody-Rageous - An Anthology 1967-1973 CD1
DYEAR=2005
DGENRE=Jazz
TTITLE0=Feelin' Reelin' Squeelin'
TTITLE1=Love Makes Sweet Music
TTITLE2=Hope For Happiness
TTITLE3=Joy Of A Toy
TTITLE4=Hope For Happiness (Reprise)
TTITLE5=We Did It Again
TTITLE6=Plus Belle Qu'une Poubelle
TTITLE7=Why Are We Sleeping?
TTITLE8=Pataphysical Introduction (Part One)
TTITLE9=A Concise British Alphabet (Part One)
TTITLE10=Hibou Anemone and Bear
TTITLE11=A Concise British Alphabet (Part Two)
TTITLE12=Hullo Der
TTITLE13=As Long As He Lies Perfectly Still
TTITLE14=Dedicated To You But You Weren't Listening
TTITLE15=Out-Bloody-Rageous
TTITLE16=Moon In June
EXTD=YEAR: 2005
EXTT0=
EXTT1=
EXTT2=
EXTT3=
EXTT4=
EXTT5=
EXTT6=
EXTT7=
EXTT8=
EXTT9=
EXTT10=
EXTT11=
EXTT12=
EXTT13=
EXTT14=
EXTT15=
EXTT16=
PLAYORDER=
